# xmcd CD database file
#
# Track frame offsets:
#	150
#	18914
#	35184
#	53948
#
# Disc length: 932 seconds
#
# Revision: 0
# Processed by: cddbd v1.5.1PL2 Copyright (c) Steve Scherf et al.
# Submitted via: CDex 1.51
#
DISCID=2f03a204
DTITLE=exige - Believe yourself
DYEAR=2005
DGENRE=アニメ
TTITLE0=Believe yourself
TTITLE1=Funny Girl
TTITLE2=Believe yourself(off vocal)
TTITLE3=Funny Girl(off vocal)
EXTD=YEAR: 2005
EXTT0=
EXTT1=
EXTT2=
EXTT3=
PLAYORDER=
